<svg width="575" height="363" viewBox="0 0 575 363" fill="none" xmlns="http://www.w3.org/2000/svg">
<path d="M388.278 267.181C388.278 271.678 390.793 275.799 394.793 277.855L557.167 361.296C565.153 365.399 574.651 359.601 574.651 350.623L574.651 12.0156C574.651 3.03723 565.153 -2.76077 557.167 1.34279L394.793 84.7842C390.793 86.8399 388.278 90.9605 388.278 95.458L388.278 267.181ZM431.107 188.848C427.899 185.639 427.899 180.438 431.107 177.23C434.316 174.021 439.517 174.021 442.726 177.23L457.458 191.961L496.839 152.58C500.048 149.372 505.248 149.371 508.457 152.58C511.666 155.789 511.665 160.99 508.457 164.198L463.267 209.389C460.058 212.597 454.857 212.597 451.648 209.389L431.107 188.848Z" fill="#00EA44"/>
<path d="M258.852 267.181C258.852 271.678 261.367 275.799 265.367 277.855L427.74 361.296C435.726 365.4 445.225 359.602 445.226 350.623L445.226 12.0156C445.225 3.03712 435.726 -2.76103 427.74 1.34278L265.367 84.7842C261.367 86.8399 258.852 90.9605 258.852 95.458L258.852 267.181ZM299.093 188.848C295.884 185.639 295.884 180.438 299.093 177.23C302.301 174.021 307.502 174.021 310.711 177.23L325.443 191.961L364.824 152.58C368.033 149.372 373.234 149.371 376.442 152.58C379.651 155.789 379.651 160.99 376.442 164.198L331.252 209.389C328.043 212.597 322.842 212.597 319.634 209.389L299.093 188.848Z" fill="url(#paint0_linear_807_60)"/>
<path d="M129.426 267.181C129.426 271.678 131.941 275.799 135.941 277.855L298.314 361.296C306.3 365.4 315.8 359.602 315.8 350.623L315.8 12.0156C315.8 3.03712 306.3 -2.76103 298.314 1.34278L135.941 84.7842C131.941 86.8399 129.426 90.9605 129.426 95.458L129.426 267.181ZM169.667 188.848C166.458 185.639 166.458 180.438 169.667 177.23C172.876 174.021 178.076 174.021 181.285 177.23L196.017 191.961L235.397 152.58C238.606 149.371 243.808 149.371 247.017 152.58C250.225 155.789 250.225 160.99 247.017 164.198L201.826 209.389C198.618 212.597 193.417 212.597 190.208 209.389L169.667 188.848Z" fill="url(#paint1_linear_807_60)"/>
<path d="M1.16788e-05 267.181C1.18754e-05 271.678 2.51539 275.799 6.51564 277.855L168.889 361.296C176.874 365.4 186.373 359.602 186.373 350.623L186.373 12.0156C186.373 3.03712 176.874 -2.76103 168.889 1.34278L6.51563 84.7842C2.51538 86.8399 3.97601e-06 90.9605 4.1726e-06 95.458L1.16788e-05 267.181ZM45.418 188.848C42.2093 185.639 42.2094 180.438 45.418 177.23C48.6267 174.021 53.8274 174.021 57.0361 177.23L71.7686 191.961L111.148 152.58C114.357 149.371 119.559 149.371 122.768 152.58C125.976 155.789 125.976 160.99 122.768 164.198L77.5772 209.389C74.3685 212.597 69.1676 212.597 65.959 209.389L45.418 188.848Z" fill="url(#paint2_linear_807_60)"/>
<defs>
<linearGradient id="paint0_linear_807_60" x1="445.226" y1="181.319" x2="258.852" y2="181.319" gradientUnits="userSpaceOnUse">
<stop stop-color="#595ADD"/>
<stop offset="1" stop-color="#303077"/>
</linearGradient>
<linearGradient id="paint1_linear_807_60" x1="129.426" y1="181.319" x2="315.8" y2="181.319" gradientUnits="userSpaceOnUse">
<stop stop-color="#0885FE"/>
<stop offset="1" stop-color="#2F99FF"/>
</linearGradient>
<linearGradient id="paint2_linear_807_60" x1="7.92574e-06" y1="181.319" x2="186.373" y2="181.319" gradientUnits="userSpaceOnUse">
<stop stop-color="#FF6800"/>
<stop offset="1" stop-color="#FF8E40"/>
</linearGradient>
</defs>
</svg>
