<svg width="1440" height="600" viewBox="0 0 1440 600" fill="none" xmlns="http://www.w3.org/2000/svg">
<rect x="138.947" y="420.264" width="42.2685" height="42.2685" rx="8" transform="rotate(21.7814 138.947 420.264)" fill="#00CD3B"/>
<path d="M161.776 443.153C163.002 442.627 164.422 443.194 164.948 444.42C165.474 445.646 164.906 447.066 163.68 447.592L146.415 454.998C145.189 455.524 143.769 454.957 143.243 453.731L139.877 445.883C139.351 444.657 139.918 443.238 141.144 442.712C142.37 442.186 143.79 442.753 144.316 443.979L146.73 449.607L161.776 443.153Z" fill="#09090B"/>
<rect x="275.915" y="350.962" width="46.1843" height="46.1843" rx="8" transform="rotate(-26.9325 275.915 350.962)" fill="#0885FE"/>
<rect x="78.9717" y="264.334" width="32.0884" height="32.0884" rx="8" transform="rotate(-26.5904 78.9717 264.334)" fill="#6466FA"/>
<rect x="238.137" y="173.669" width="35" height="35" rx="8" transform="rotate(12.3177 238.137 173.669)" fill="#FF6800"/>
<rect x="1122.78" y="325.259" width="43.7845" height="43.7845" rx="8" transform="rotate(22.1678 1122.78 325.259)" fill="#00CD3B"/>
<rect x="1189.48" y="189.921" width="30.8846" height="30.8846" rx="8" transform="rotate(-17.7953 1189.48 189.921)" fill="#0885FE"/>
<rect x="1315.67" y="276.26" width="31.1591" height="31.1591" rx="8" transform="rotate(-12.2034 1315.67 276.26)" fill="#00BBA6"/>
<rect x="1395.03" y="186" width="23.4299" height="23.4299" rx="8" transform="rotate(22.6638 1395.03 186)" fill="#6466FA"/>
<rect x="1265" y="466.821" width="31.41" height="31.41" rx="8" transform="rotate(-32.3802 1265 466.821)" fill="#FF6800"/>
<path d="M311.064 349.137C311.516 347.751 313.006 346.995 314.391 347.447C315.777 347.899 316.534 349.388 316.082 350.774L309.715 370.289C309.263 371.675 307.774 372.431 306.388 371.979L297.518 369.086C296.132 368.634 295.375 367.144 295.827 365.758C296.279 364.373 297.769 363.616 299.155 364.068L305.516 366.144L311.064 349.137Z" fill="#09090B"/>
<path d="M103.472 262.924C103.792 261.963 104.83 261.444 105.79 261.764C106.751 262.083 107.271 263.121 106.951 264.082L102.447 277.614C102.127 278.575 101.089 279.095 100.128 278.775L93.9773 276.728C93.0164 276.408 92.4969 275.37 92.8167 274.409C93.1365 273.448 94.1744 272.929 95.1353 273.249L99.5468 274.717L103.472 262.924Z" fill="#09090B"/>
<path d="M259.898 189.257C260.828 188.66 262.065 188.93 262.661 189.86C263.258 190.79 262.988 192.026 262.058 192.623L248.965 201.023C248.035 201.619 246.798 201.349 246.202 200.42L242.383 194.468C241.787 193.538 242.057 192.302 242.987 191.705C243.916 191.109 245.153 191.379 245.75 192.308L248.488 196.577L259.898 189.257Z" fill="#09090B"/>
<path d="M1146.27 349.128C1147.54 348.592 1149.01 349.189 1149.54 350.463C1150.08 351.736 1149.48 353.203 1148.21 353.739L1130.27 361.291C1129 361.827 1127.53 361.229 1126.99 359.956L1123.56 351.803C1123.03 350.53 1123.62 349.063 1124.9 348.527C1126.17 347.99 1127.64 348.588 1128.17 349.862L1130.64 355.709L1146.27 349.128Z" fill="#09090B"/>
<path d="M1212.99 192.185C1213.44 191.318 1214.5 190.977 1215.37 191.423C1216.24 191.868 1216.58 192.932 1216.13 193.799L1209.86 206.007C1209.41 206.874 1208.35 207.216 1207.48 206.77L1201.93 203.918C1201.06 203.472 1200.72 202.408 1201.17 201.541C1201.61 200.675 1202.68 200.333 1203.54 200.779L1207.52 202.825L1212.99 192.185Z" fill="#09090B"/>
<path d="M1339.06 280.844C1339.59 280.018 1340.69 279.779 1341.52 280.312C1342.35 280.845 1342.58 281.946 1342.05 282.773L1334.55 294.415C1334.02 295.241 1332.92 295.479 1332.09 294.947L1326.8 291.537C1325.97 291.004 1325.73 289.903 1326.26 289.076C1326.8 288.25 1327.9 288.011 1328.73 288.544L1332.52 290.989L1339.06 280.844Z" fill="#09090B"/>
<path d="M1407.49 198.881C1408.17 198.6 1408.95 198.926 1409.23 199.61C1409.51 200.294 1409.19 201.076 1408.5 201.357L1398.87 205.315C1398.19 205.596 1397.4 205.269 1397.12 204.585L1395.32 200.207C1395.04 199.523 1395.37 198.741 1396.05 198.46C1396.74 198.179 1397.52 198.506 1397.8 199.19L1399.09 202.33L1407.49 198.881Z" fill="#09090B"/>
<path d="M1288.72 463.028C1288.94 462.061 1289.9 461.452 1290.86 461.669C1291.83 461.885 1292.44 462.845 1292.22 463.812L1289.17 477.436C1288.96 478.403 1288 479.011 1287.03 478.795L1280.84 477.408C1279.87 477.192 1279.26 476.232 1279.48 475.265C1279.69 474.298 1280.65 473.689 1281.62 473.906L1286.06 474.9L1288.72 463.028Z" fill="#09090B"/>
<path d="M253.783 436.644C253.961 436.121 254.529 435.841 255.052 436.019C255.574 436.197 255.854 436.764 255.677 437.287L253.268 444.375L260.356 446.783C260.879 446.961 261.159 447.528 260.981 448.051C260.803 448.574 260.236 448.854 259.713 448.676L252.625 446.268L250.217 453.356C250.039 453.879 249.472 454.158 248.949 453.981C248.426 453.803 248.146 453.235 248.324 452.712L250.732 445.625L243.644 443.217C243.121 443.039 242.841 442.471 243.019 441.948C243.197 441.426 243.765 441.146 244.288 441.323L251.375 443.731L253.783 436.644Z" fill="#818182"/>
<path d="M1124.3 227.304C1124.75 226.983 1125.37 227.088 1125.69 227.537C1126.01 227.986 1125.91 228.611 1125.46 228.932L1119.41 233.247L1123.73 239.297C1124.05 239.746 1123.94 240.37 1123.49 240.691C1123.04 241.012 1122.42 240.907 1122.1 240.458L1117.78 234.408L1111.73 238.725C1111.28 239.045 1110.66 238.941 1110.34 238.491C1110.02 238.042 1110.12 237.417 1110.57 237.097L1116.62 232.78L1112.3 226.732C1111.98 226.282 1112.09 225.658 1112.54 225.337C1112.99 225.017 1113.61 225.121 1113.93 225.57L1118.25 231.619L1124.3 227.304Z" fill="#818182"/>
<path d="M1305.84 179.041C1306.37 179.199 1306.67 179.755 1306.51 180.284L1304.38 187.459L1311.55 189.594C1312.08 189.752 1312.38 190.308 1312.22 190.837C1312.07 191.367 1311.51 191.668 1310.98 191.511L1303.81 189.375L1301.67 196.551C1301.51 197.08 1300.96 197.382 1300.43 197.224C1299.9 197.067 1299.6 196.51 1299.75 195.981L1301.89 188.805L1294.71 186.671C1294.19 186.514 1293.88 185.958 1294.04 185.428C1294.2 184.899 1294.76 184.598 1295.28 184.755L1302.46 186.889L1304.59 179.715C1304.75 179.185 1305.31 178.884 1305.84 179.041Z" fill="#818182"/>
<path d="M1384.6 399.959C1385.15 400.017 1385.55 400.509 1385.49 401.058C1385.43 401.607 1384.94 402.005 1384.39 401.947L1376.95 401.158L1376.16 408.602C1376.1 409.151 1375.61 409.549 1375.06 409.491C1374.51 409.433 1374.11 408.94 1374.17 408.391L1374.96 400.948L1367.52 400.159C1366.97 400.1 1366.57 399.608 1366.63 399.059C1366.69 398.51 1367.18 398.112 1367.73 398.17L1375.17 398.959L1375.96 391.515C1376.02 390.966 1376.51 390.568 1377.06 390.626C1377.61 390.684 1378.01 391.177 1377.95 391.726L1377.16 399.17L1384.6 399.959Z" fill="#818182"/>
<path d="M1159.72 412.261C1159.57 411.728 1159.89 411.179 1160.42 411.035C1160.96 410.891 1161.5 411.206 1161.65 411.739L1163.12 417.195L1168.58 415.719C1169.11 415.575 1169.66 415.89 1169.81 416.423C1169.95 416.956 1169.64 417.504 1169.1 417.649L1163.65 419.125L1165.12 424.582C1165.27 425.115 1164.95 425.664 1164.42 425.808C1163.89 425.953 1163.34 425.637 1163.19 425.104L1161.72 419.648L1156.26 421.124C1155.73 421.268 1155.18 420.953 1155.03 420.42C1154.89 419.887 1155.2 419.338 1155.74 419.193L1161.19 417.717L1159.72 412.261Z" fill="#818182"/>
<path d="M322.416 111.716C322.922 111.493 323.512 111.722 323.735 112.228C323.958 112.733 323.729 113.323 323.224 113.546L316.376 116.568L319.397 123.416C319.62 123.921 319.392 124.512 318.886 124.735C318.381 124.958 317.791 124.729 317.568 124.224L314.546 117.375L307.698 120.397C307.192 120.62 306.602 120.391 306.379 119.886C306.156 119.381 306.385 118.791 306.89 118.568L313.739 115.546L310.717 108.697C310.494 108.192 310.722 107.602 311.228 107.379C311.733 107.156 312.323 107.385 312.546 107.89L315.568 114.738L322.416 111.716Z" fill="#818182"/>
<path d="M34.1562 347.017C34.3338 346.494 34.9016 346.215 35.4246 346.392C35.9474 346.57 36.2273 347.138 36.0496 347.661L33.6415 354.748L40.729 357.156C41.2519 357.334 41.5317 357.902 41.3541 358.425C41.1764 358.948 40.6086 359.227 40.0857 359.05L32.9982 356.642L30.5901 363.729C30.4124 364.252 29.8446 364.532 29.3217 364.354C28.7988 364.176 28.5189 363.609 28.6966 363.086L31.1047 355.998L24.0173 353.59C23.4943 353.412 23.2145 352.845 23.3922 352.322C23.5699 351.799 24.1377 351.519 24.6606 351.697L31.7481 354.105L34.1562 347.017Z" fill="#818182"/>
<path d="M144.367 167.017C144.545 166.494 145.113 166.214 145.636 166.391C146.159 166.569 146.439 167.137 146.261 167.66L144.56 172.666L149.566 174.366C150.089 174.544 150.369 175.113 150.192 175.635C150.014 176.158 149.445 176.438 148.922 176.261L143.916 174.559L142.216 179.566C142.038 180.088 141.47 180.368 140.948 180.191C140.425 180.013 140.144 179.444 140.322 178.922L142.022 173.916L137.017 172.215C136.494 172.037 136.214 171.47 136.392 170.947C136.57 170.424 137.138 170.144 137.661 170.322L142.666 172.021L144.367 167.017Z" fill="#818182"/>
</svg>
