<svg width="56" height="36" viewBox="0 0 56 36" fill="none" xmlns="http://www.w3.org/2000/svg">
<g clip-path="url(#clip0_786_109)">
<path d="M27.4327 11.7018C30.4924 14.8463 30.5802 19.8724 27.5611 23.124L21.3031 29.8641C18.1865 33.2206 12.9388 33.4149 9.58223 30.2983L2.84212 24.0403C-0.514349 20.9237 -0.708613 15.6759 2.40794 12.3194L8.66595 5.5793C11.7826 2.22295 17.0303 2.02861 20.3868 5.14513L27.1269 11.4031L27.4327 11.7018ZM23.1639 19.0416C24.0257 18.1135 23.9726 16.6622 23.0445 15.8003L16.3044 9.54234C15.3762 8.68049 13.9241 8.73386 13.0623 9.66207L6.80426 16.4022C5.99628 17.2724 5.99301 18.6026 6.7606 19.4756L6.92489 19.644L13.665 25.902C14.5351 26.7097 15.8646 26.7132 16.7375 25.946L16.9059 25.7817L23.1639 19.0416Z" fill="#00C951"/>
<path d="M53.3233 11.7018C56.3831 14.8463 56.4708 19.8724 53.4517 23.124L47.1937 29.8641C44.0771 33.2206 38.8294 33.4149 35.4729 30.2983L28.7327 24.0403C25.3763 20.9237 25.182 15.6759 28.2986 12.3194L34.5566 5.5793C37.6732 2.22295 42.9209 2.02861 46.2774 5.14513L53.0175 11.4031L53.3233 11.7018ZM49.0545 19.0416C49.9163 18.1135 49.8632 16.6622 48.9352 15.8003L42.195 9.54234C41.2668 8.68049 39.8147 8.73386 38.9529 9.66207L32.6949 16.4022C31.8869 17.2724 31.8836 18.6026 32.6512 19.4756L32.8155 19.644L39.5556 25.902C40.4257 26.7097 41.7552 26.7132 42.6281 25.946L42.7965 25.7817L49.0545 19.0416Z" fill="#00C951"/>
</g>
<defs>
<clipPath id="clip0_786_109">
<rect width="56" height="36" fill="white"/>
</clipPath>
</defs>
</svg>
